<svg viewBox="0 0 59 35" class="h-6 md:h-9" fill="none" xmlns="http://www.w3.org/2000/svg"><path fill-rule="white" clip-rule="evenodd" d="m23.958 18.678 2.364-.195-1.193-3.164-1.171 3.36Zm7.66-5.324c.078.073.157.17.238.288.08.12.165.244.25.373l3.082 4.405v-4.702c0-.306.066-.54.197-.704l.011-.012-3.797.335.02.017Zm-.02-.016-.008-.008.009.008Zm-9.445-.44.838-.077c.265-.024.444-.212.444-.468V7.785c0-.214.084-.42.245-.607a.895.895 0 0 1 .597-.299l1.126-.101c.226-.02.42.045.582.204.163.15.244.335.244.55V12.1c0 .256.18.412.445.388l.852-.077a.323.323 0 0 0 .121-.038c.254-.135.308-.307.308-.429V7.376a.92.92 0 0 1 .245-.607.894.894 0 0 1 .596-.299l1.126-.102a.747.747 0 0 1 .597.203c.163.15.245.335.245.55v4.569c0 .256.179.412.444.388l.837-.076c.265-.024.444-.213.444-.468V6.966c0-.68-.26-1.218-.769-1.594-.492-.38-1.097-.538-1.798-.475L28.796 5c-.664.06-1.235.299-1.704.71-.466-.327-1.034-.462-1.69-.403l-1.125.102a3.008 3.008 0 0 0-1.813.802 2.338 2.338 0 0 0-.754 1.731v4.568c0 .256.178.412.443.388Zm22.592-2.682c.492.377 1.096.537 1.798.473.971-.088 1.707-.248 2.254-.491a.472.472 0 0 0 .298-.436V9.21c0-.361-.3-.445-.514-.373-.515.17-1.181.291-2.038.369a.745.745 0 0 1-.597-.192.736.736 0 0 1-.245-.563v-2.67c0-.223.083-.428.245-.605a.895.895 0 0 1 .597-.3c.856-.077 1.54-.077 2.035 0 .243.038.517-.108.517-.466v-.552c0-.181-.097-.318-.286-.384-.543-.143-1.284-.17-2.266-.082-.7.064-1.311.338-1.812.815a2.338 2.338 0 0 0-.755 1.73v2.67c0 .676.259 1.216.77 1.609Zm10.759-6.997c-.493-.38-1.098-.538-1.798-.475-.878.08-1.539.194-1.976.346-.311.119-.345.351-.345.446v.577c0 .112.03.204.087.274a.35.35 0 0 0 .312.12.69.69 0 0 0 .093-.018c.338-.103.953-.194 1.829-.274.225-.02.42.046.581.204a.72.72 0 0 1 .246.551v.382l-1.953.176a2.952 2.952 0 0 0-1.813.814c-.5.475-.754 1.053-.754 1.719 0 .674.259 1.215.769 1.608.492.377 1.096.537 1.798.474l3.248-.294a.457.457 0 0 0 .43-.467V4.814c0-.665-.261-1.216-.754-1.595Zm-.971 5.263-1.953.177a.744.744 0 0 1-.597-.191.735.735 0 0 1-.245-.563c0-.216.082-.417.245-.594a.895.895 0 0 1 .597-.299l1.953-.177v1.647Zm-13.446 5.234-1.058.088v5.365l1.214-.1c.267-.022.475-.046.627-.073.15-.027.307-.076.469-.147.162-.07.302-.163.42-.277.537-.497.805-1.3.805-2.407 0-.78-.118-1.354-.353-1.723-.236-.369-.527-.592-.872-.67-.345-.077-.763-.096-1.252-.056Zm-22.516-8.99 1.4-.126c.266-.024.445-.213.445-.468V3.49c0-.206-.138-.402-.444-.374l-1.401.127c-.306.028-.443.248-.443.454v.642c0 .256.178.411.443.387Zm14.778.41a.815.815 0 0 0 .248-.214l1.695 1.745-1.01.342a.517.517 0 0 0-.176-.252c-.25-.192-.626-.131-.841.137-.215.269-.188.642.062.835.25.192.626.13.84-.138a.642.642 0 0 0 .121-.24l1.014.473-.003.06c0 2.169 1.76 3.768 3.93 3.571 2.17-.196 3.93-2.114 3.93-4.283 0-2.169-1.76-3.768-3.93-3.572-.813.074-1.57.39-2.196.87l-.857-.593a.682.682 0 0 0 .11-.334.571.571 0 0 0-.603-.61.71.71 0 0 0-.664.664.57.57 0 0 0 .603.609.662.662 0 0 0 .27-.072l.187 1.175-2.315-.786a.687.687 0 0 0-.059-.38c-.167-.347-.597-.468-.96-.268-.364.199-.523.643-.356.992.166.348.597.468.96.269Zm6.753 3.73a.468.468 0 0 1 .52.474.582.582 0 0 1-.52.569.468.468 0 0 1-.521-.474c0-.287.232-.542.52-.568Zm-1.813.165a.469.469 0 0 1 .521.473.582.582 0 0 1-.521.569.468.468 0 0 1-.521-.474c0-.287.233-.542.52-.568Zm3.989 3.36h-.021.02Zm-3.235.264c-.032.01-.063.02-.092.033l.092-.009v-.024Zm3.248-.263h-.009.009Zm10.14 5.577-.011.026.01-.026Zm-1.274 1.366c-.475.255-1.038.41-1.689.463-.78.064-1.425-.03-1.932-.283a2.282 2.282 0 0 1-.877-.777c-.225-.335-.337-.67-.337-1.005 0-.194.067-.366.202-.515a.752.752 0 0 1 .515-.25.568.568 0 0 1 .43.126c.116.098.216.25.299.455.1.244.21.445.326.604.117.16.282.285.494.377.212.093.491.124.837.096.475-.04.86-.182 1.157-.427.297-.246.446-.534.446-.865 0-.262-.08-.468-.24-.619a1.396 1.396 0 0 0-.621-.323c-.254-.066-.593-.13-1.017-.192-.569-.086-1.045-.202-1.428-.348a2.053 2.053 0 0 1-.912-.653c-.225-.289-.337-.662-.337-1.118 0-.435.118-.831.356-1.189.237-.357.58-.646 1.03-.864.127-.061.26-.115.398-.163l-5.966.527c.218.007.42.027.604.059.388.069.74.228 1.057.479.824.637 1.236 1.674 1.236 3.112 0 .474-.041.911-.124 1.31a4.15 4.15 0 0 1-.383 1.091 3.706 3.706 0 0 1-.664.899 3.08 3.08 0 0 1-.696.516c-.252.136-.523.239-.812.31-.29.07-.616.12-.98.15l-2.088.173c-.292.024-.511-.002-.659-.078a.548.548 0 0 1-.288-.349 2.292 2.292 0 0 1-.068-.617V13.65c0-.345.078-.601.232-.768a.798.798 0 0 1 .293-.194l-2.506.221.017.016c.133.142.2.366.2.671v6.218c0 .694-.288 1.064-.864 1.112a1.11 1.11 0 0 1-.388-.03.887.887 0 0 1-.324-.17 1.686 1.686 0 0 1-.28-.292c-.087-.114-.173-.23-.26-.349l-3.006-4.357v4.633c0 .302-.07.536-.21.702a.762.762 0 0 1-.54.276c-.227.019-.408-.044-.545-.19-.137-.145-.205-.366-.205-.665v-6.099c0-.259.029-.464.086-.616a.943.943 0 0 1 .217-.32l-4.44.392c.06.05.112.104.157.166.092.126.169.262.232.41.063.147.143.345.24.592l2.067 4.93c.162.376.243.651.243.828 0 .183-.077.357-.23.523a.824.824 0 0 1-.553.274.689.689 0 0 1-.323-.04.59.59 0 0 1-.227-.165 1.517 1.517 0 0 1-.197-.34c-.07-.154-.13-.29-.18-.408l-.379-.96-3.216.264-.378 1.045c-.147.408-.273.685-.378.832-.104.147-.275.23-.512.25a.696.696 0 0 1-.534-.177.619.619 0 0 1-.233-.482c0-.108.018-.22.054-.339.036-.118.096-.283.178-.495l2.024-5.3.208-.549c.081-.213.167-.392.259-.536a1.16 1.16 0 0 1 .149-.188l-5.192.46c.044.012.087.026.13.042a1.792 1.792 0 0 1 1.092 1.034c.1.249.149.517.149.805 0 .59-.167 1.074-.5 1.454-.332.38-.837.671-1.513.874.284.128.556.328.815.602.259.273.49.568.693.883.203.316.362.603.475.862.113.258.17.438.17.538 0 .105-.033.21-.1.319a.79.79 0 0 1-.273.265.914.914 0 0 1-.399.122.737.737 0 0 1-.453-.09 1.077 1.077 0 0 1-.316-.294 11.272 11.272 0 0 1-.359-.542l-.642-1.015c-.23-.373-.436-.654-.618-.844-.182-.19-.366-.315-.553-.375-.187-.06-.423-.078-.707-.055l-.561.046v2.54c0 .335-.074.587-.221.757a.823.823 0 0 1-.578.285c-.255.021-.453-.045-.594-.199-.14-.154-.21-.39-.21-.71v-6.083c0-.345.077-.602.232-.77l.028-.026-3.167.28a1.781 1.781 0 0 1 .716.478c.144.159.254.339.33.54.075.2.113.415.113.645 0 .79-.396 1.402-1.188 1.834 1.04.245 1.56.846 1.56 1.802 0 .442-.114.85-.34 1.223-.227.373-.533.66-.918.86a3.49 3.49 0 0 1-.83.282 8.67 8.67 0 0 1-1.096.152l-2.418.2c-.35.028-.598-.03-.747-.173a.534.534 0 0 1-.041-.045v.313s.03.058.088.073l36.771 9.633 9.216-14.514V18c-.05.12-.109.238-.179.352-.246.401-.607.73-1.082.984Zm-39.955-4.194-.008-.003a.973.973 0 0 0 .008.003Zm8.496-9.318-.852.077c-.307.028-.444.249-.444.455v6.454c0 .256.178.412.444.388l.852-.077c.265-.024.443-.213.443-.468V6.197c0-.206-.137-.402-.443-.374Zm32.645 7.425c-.077 0-.08.055-.08.055v.02a.82.82 0 0 1-.202.531.708.708 0 0 1-.504.271c-.184.015-.323-.019-.419-.103a1.645 1.645 0 0 1-.31-.424 1.817 1.817 0 0 0-.518-.656c-.202-.15-.526-.207-.971-.17-.414.034-.748.152-1.002.354-.253.203-.38.432-.38.687a.62.62 0 0 0 .13.4.968.968 0 0 0 .356.266c.15.07.304.123.458.157.155.034.41.08.767.141.446.068.85.15 1.211.246.362.095.67.223.923.382.254.159.452.37.594.633l.022.046v-2.781s-.01-.055-.075-.055Zm-43.336.411V9.091c0-.664-.26-1.216-.754-1.595-.493-.379-1.098-.538-1.798-.475-.878.08-1.539.195-1.976.346-.312.12-.345.352-.345.446v.577c0 .112.03.204.087.274.074.089.185.131.312.12a.684.684 0 0 0 .092-.017c.34-.103.954-.195 1.83-.274.225-.02.419.046.582.204.162.15.245.335.245.55v.382l-1.953.177a2.952 2.952 0 0 0-1.813.814c-.5.475-.754 1.053-.754 1.718 0 .675.258 1.216.769 1.609.491.377 1.096.537 1.798.473l3.248-.294a.457.457 0 0 0 .43-.467Zm-1.725-.9-1.953.178a.744.744 0 0 1-.597-.192.733.733 0 0 1-.245-.563c0-.216.082-.416.245-.594a.894.894 0 0 1 .597-.299l1.953-.176v1.647Zm8.43 5.16 1.435-.119a4.17 4.17 0 0 0 .972-.18c.262-.088.463-.218.601-.389.139-.171.208-.397.208-.678a.957.957 0 0 0-.167-.566.9.9 0 0 0-.464-.336c-.187-.064-.556-.073-1.107-.027l-1.478.121v2.174Zm-4.68-4.015.839-.076c.265-.024.443-.212.443-.468V8.792c0-.214.084-.42.245-.607a.894.894 0 0 1 .597-.299l1.126-.102a.705.705 0 0 1 .582.204c.163.15.245.335.245.55v4.569c0 .256.178.412.444.388l.852-.077a.457.457 0 0 0 .429-.467V8.383c0-.68-.26-1.217-.769-1.594-.492-.38-1.092-.539-1.783-.476l-1.127.102a3.009 3.009 0 0 0-1.812.801 2.338 2.338 0 0 0-.754 1.732v4.568c0 .256.179.412.444.388Zm-.345 5.718c-.28-.156-.7-.212-1.257-.166l-1.668.138v2.308l1.722-.142c1.083-.09 1.624-.524 1.624-1.304 0-.4-.14-.677-.42-.834Zm-2.925-1.177 1.468-.12c.4-.034.708-.097.926-.19a.994.994 0 0 0 .5-.473c.089-.159.134-.331.134-.518 0-.4-.142-.652-.426-.76-.285-.108-.718-.138-1.3-.09l-1.302.107v2.044Z" fill="white"/></svg>