<svg class="h-full w-auto" viewBox="0 0 24 19" fill="white" xmlns="http://www.w3.org/2000/svg"><g clip-path="url(#a)"><path d="M20.162 2.471a18.709 18.709 0 0 0-4.618-1.432.07.07 0 0 0-.074.035c-.2.355-.42.817-.575 1.181a17.271 17.271 0 0 0-5.187 0 11.95 11.95 0 0 0-.584-1.18.073.073 0 0 0-.074-.036c-1.62.28-3.17.768-4.618 1.432a.066.066 0 0 0-.03.026C1.461 6.891.655 11.177 1.05 15.41c.002.02.014.04.03.053a18.81 18.81 0 0 0 5.665 2.864c.03.009.06-.002.08-.027.436-.595.825-1.224 1.158-1.885a.072.072 0 0 0-.039-.1 12.389 12.389 0 0 1-1.77-.843.073.073 0 0 1-.007-.12c.12-.09.238-.182.352-.276a.07.07 0 0 1 .073-.01c3.713 1.695 7.732 1.695 11.401 0a.07.07 0 0 1 .074.009c.114.094.233.187.353.276a.073.073 0 0 1-.007.121c-.565.33-1.152.61-1.77.843a.072.072 0 0 0-.039.1c.341.66.73 1.289 1.158 1.885.018.025.05.036.08.027a18.749 18.749 0 0 0 5.674-2.864.073.073 0 0 0 .03-.052c.472-4.894-.793-9.144-3.355-12.913a.058.058 0 0 0-.03-.027ZM8.538 12.833c-1.118 0-2.04-1.027-2.04-2.287s.904-2.286 2.04-2.286c1.144 0 2.056 1.035 2.038 2.286 0 1.26-.903 2.287-2.038 2.287Zm7.538 0c-1.118 0-2.039-1.027-2.039-2.287s.903-2.286 2.039-2.286c1.145 0 2.057 1.035 2.039 2.286 0 1.26-.894 2.287-2.04 2.287Z" fill="grey"/></g><defs><clipPath id="a"><path fill="#fff" transform="translate(.958 .906)" d="M0 0h22.686v17.574H0z"/></clipPath></defs></svg>