<svg class="relative z-20 w-full" viewBox="0 0 1439 294" fill="none" xmlns="http://www.w3.org/2000/svg"><path d="M342.725 63.956 188.434 231.54c-32.876 36.555-51.088 62.587-145.39 62.587-53.132-.158-56.653-26.427-11.869-62.903l201.766-167.15C277.765 27.598 303.432 1.25 354.633 1.25c48.818 0 20.929 26.15-11.908 62.706ZM297.902 54.5c-7.775 0-11.196 3.957-17.408 9.535L99.34 231.342c-6.171 5.697-6.171 9.535.277 9.535 10.196 0 15.447-4.449 20.493-9.495A523662.196 523662.196 0 0 0 295.014 63.995c5.973-5.736 7.5-9.495 2.888-9.495ZM455.849 57.291a2.015 2.015 0 0 1-1.694.925h-23.364c-.889 0-1.723.43-2.24 1.152L264.43 289.074a5.508 5.508 0 0 1-4.48 2.305h-68.122c-1.706-.005-2.599-2.181-1.504-3.49 0 0 190.345-227.074 191.072-227.783.143-.14.292-.297.441-.46.512-.563.092-1.43-.669-1.43h-20.662c-1.747 0-2.666-2.072-1.492-3.367l46.641-49.751a3.67 3.67 0 0 1 2.678-1.16h78.315c1.595-.004 2.561 1.759 1.7 3.1-10.563 16.465-21.869 33.722-32.499 50.253ZM589.077 6.491c-29.94 87.434-90.732 257.57-99.444 281.934-.653 1.824-2.342 2.932-4.28 2.932h-65.664c-2.142 0-3.383-1.145-2.697-2.625 16.948-36.575 38.061-81.794 55.081-118.369a1.192 1.192 0 0 0-1.085-1.685h-15.922c-.762 0-1.459.43-1.8 1.111l-60.452 119.045a4.589 4.589 0 0 1-4.097 2.523h-69.439c-1.579-.004-2.539-1.741-1.704-3.08L497.324 4.901a2.015 2.015 0 0 1 1.709-.948l35.184-.014c1.498 0 2.472 1.578 1.8 2.917L481.663 113.86a1.283 1.283 0 0 0 1.143 1.867h13.417c.784 0 1.496-.455 1.827-1.166 17.625-37.963 33.48-71.801 51.029-109.46a2.015 2.015 0 0 1 1.82-1.163h36.251c1.384-.005 2.375 1.244 1.927 2.553ZM646.45 238.175a2.014 2.014 0 0 1 2.001 2.203c-1.495 15.848-3.424 32.991-4.935 48.947a2.296 2.296 0 0 1-2.286 2.081H509.231c-1.36-.002-2.426-1.475-2.018-2.772 29.725-94.451 61.721-188.94 91.497-283.289a2.014 2.014 0 0 1 1.915-1.407l69.708.02c1.19-.003 2.109.813 1.996 1.998-1.582 16.559-5.056 33.612-6.571 50.148a2.014 2.014 0 0 1-2.005 1.83h-34.995c-.965 0-1.794.684-1.977 1.63a36825.872 36825.872 0 0 0-10.339 53.459 2.013 2.013 0 0 0 1.977 2.395h28.887a2.013 2.013 0 0 1 2 2.247 19390.517 19390.517 0 0 1-5.856 49.664 2.014 2.014 0 0 1-2 1.775h-34.213c-.965 0-1.794.684-1.978 1.631-4.197 21.656-8.394 43.3-12.591 64.933a2.014 2.014 0 0 0 1.973 2.398l51.809.109ZM761.554 291.384a2.017 2.017 0 0 1-1.944-1.475c-8.411-30.191-16.764-61.775-23.426-91.92a3.72 3.72 0 0 1-.03-.136 1.842 1.842 0 0 0-1.797-1.445h-1.731a1.855 1.855 0 0 0-1.845 1.953l.008.162 5.979 90.928c.058 1.153-.673 1.931-1.827 1.928h-71.288a2.013 2.013 0 0 1-2.003-2.156c6.683-94.53 11.787-188.882 18.419-283.412a2.014 2.014 0 0 1 2.009-1.873h48.93c40.75 0 45.299 25.994 55.387 70.817l10.563 51.114c4.132 19.886 2.422 36.116-5.571 47.918a2.07 2.07 0 0 0-.249 1.853c13.42 37.809 29.144 75.093 45.6 112.927a2.017 2.017 0 0 1-1.863 2.822l-73.321-.005ZM724.703 57.823a2.292 2.292 0 0 0-2.29 2.41c1.347 25.849 3.354 54.479 4.676 80.311a2.295 2.295 0 0 0 2.292 2.179h5.804c4.295 0 7.671-3.666 7.309-7.946l-.725-8.552a43257.09 43257.09 0 0 1-4.47-52.617 664.688 664.688 0 0 0-.801-8.424c-.424-4.192-3.962-7.361-8.175-7.361h-3.62ZM863.493 97.568c-.84 0-1.592-.521-1.886-1.308l-12.962-34.654c-1.741-4.628-5.064-7.714-8.15-7.714-3.085 0-3.956 3.086-2.571 7.714l7.358 21.166c5.5 15.033 5.381 17.684 39.918 39.562 43.519 26.981 63.814 45.496 76.948 72.477l18.515 37.386c21.557 42.015-1.819 61.475-52.775 61.317-50.956-.158-89.727-19.737-98.47-61.633a2935.977 2935.977 0 0 0-7.321-31.739 2.016 2.016 0 0 1 1.96-2.482h59.315c.858 0 1.621.543 1.903 1.353 4.036 11.627 8.059 23.229 12.071 34.806a11.873 11.873 0 0 0 4.286 5.553 11.873 11.873 0 0 0 6.673 2.162c4.589 0 7.239-2.651 5.34-7.675l-10.088-26.942c-8.466-22.708-18.515-26.19-44.111-42.37-48.187-31.215-54.952-46.209-61.638-73.507-2.057-9.099-3.956-18.198-6.211-27.297-8.15-39.206-16.056-62.493 29.823-62.493 50.927 0 55.314 23.089 75.53 62.414a44999.99 44999.99 0 0 0 15.334 30.996c.663 1.339-.311 2.908-1.804 2.908h-46.987ZM1097.64 288.286c.46.714.4 1.547 0 2.17-.34.545-.95.929-1.69.929h-68.55c-1.2 0-2.3-.669-2.86-1.734L877.937 6.881c-.697-1.341.276-2.944 1.787-2.944h33.144c1.093 0 2.111.556 2.702 1.475 60.724 94.431 121.58 188.258 182.07 282.874ZM1077.27 67.21 1230.1 229.65c35.6 37.148 25.27 61.854-27.5 61.736h-83.48c-1.23 0-2.37-.617-3.05-1.642L928.83 7.39c-.884-1.326-.017-3.456 1.577-3.456h42.026c50.397 0 69.067 26.127 104.837 63.275Zm-63.3-9.614h-4.61a.91.91 0 0 0-.74 1.447c.43.577.93 1.233 1.36 1.783l139.03 176.917a3.68 3.68 0 0 0 2.89 1.402h7.77c6.41 0 7.36-3.956 2.58-9.653-44.39-54.12-88.79-108.188-133.21-162.204-.96-1.2-2.2-2.711-3.4-4.18a15.066 15.066 0 0 0-11.67-5.512ZM1376.74 239.632a5.501 5.501 0 0 1 3.58 1.318l54.97 46.916c1.42 1.202.56 3.526-1.3 3.521h-129.11c-1.26 0-2.46-.514-3.33-1.423L1032.27 7.321c-1.22-1.267-.32-3.383 1.44-3.383h66.35c1.34 0 2.63.487 3.64 1.371l55.48 48.815c1.42 1.201.57 3.521-1.29 3.521h-30.77c-.84 0-1.24 1.029-.62 1.594.82.757 1.7 1.562 2.03 1.871l57.7 53.156a5.517 5.517 0 0 0 3.73 1.456h29.41c1.32 0 2.59.475 3.59 1.337l57.26 49.395c1.4 1.208.55 3.508-1.3 3.508h-29.86c-.84 0-1.24 1.025-.63 1.592l72.22 66.654a5.508 5.508 0 0 0 3.74 1.46l52.35-.036Z" fill="#fff"/></svg>