<svg class="h-5 md:h-7" viewBox="0 0 118.3 21.4" xmlns="http://www.w3.org/2000/svg"><path fill="white" d="M28.5 15.9V5.4h2.1v10.5h-2.1zm11.9 0V9.8l-2 4H37l-2.1-4v6.1h-2V5.4h2l2.7 5.7 2.7-5.7h2v10.5h-1.9zM49 12h-2v4h-2.1V5.4H49c2.2 0 3.5 1.5 3.5 3.3-.1 1.8-1.4 3.3-3.5 3.3zm-.1-4.7H47v2.8h1.9c.9 0 1.5-.5 1.5-1.4 0-.9-.6-1.4-1.5-1.4zm10.8 8.6-2.1-4.2h-1.5v4.2h-2V5.4h4.1c2.1 0 3.4 1.5 3.4 3.2 0 1.5-.9 2.4-1.9 2.8l2.3 4.5h-2.3zm-1.6-8.6h-2V10h2c.9 0 1.5-.5 1.5-1.4 0-.8-.6-1.3-1.5-1.3zm12 7.6c-.7.7-1.6 1.2-2.8 1.2-1.2 0-2.1-.4-2.8-1.2-1.1-1.1-1-2.4-1-4.2s0-3.1 1-4.2c.7-.7 1.6-1.2 2.8-1.2 1.2 0 2.1.4 2.8 1.2 1.1 1.1 1.1 2.4 1.1 4.2 0 1.8 0 3.1-1.1 4.2zm-1.5-7.2c-.2-.2-.4-.3-.6-.4-.2-.1-.5-.1-.7-.1-.3 0-.5 0-.7.1-.2.1-.4.2-.6.4-.4.5-.5.9-.5 3 0 2 .1 2.5.5 3 .2.2.4.3.6.4.2.1.5.1.7.1.3 0 .5 0 .7-.1.2-.1.4-.2.6-.4.4-.5.5-.9.5-3 0-2-.1-2.5-.5-3zm9.1 8.2h-4.4V5.4h4.2c2.1 0 3.2 1.2 3.2 3 0 1.2-.8 1.9-1.3 2.2.6.3 1.4 1 1.4 2.4.1 1.9-1.3 2.9-3.1 2.9zm-.4-8.6h-2v2.3h2c.9 0 1.4-.5 1.4-1.2s-.5-1.1-1.4-1.1zm.1 4.2h-2.1V14h2.2c.9 0 1.4-.6 1.4-1.3-.1-.6-.5-1.2-1.5-1.2zm11.5 4.4-.6-1.9h-3.7l-.6 1.9h-2.1l3.8-10.5h1.6l3.8 10.5h-2.2zm-2.4-7.4-1.3 3.8h2.6l-1.3-3.8zm10.3 7.4h-4.4V5.4h4.2c2.1 0 3.2 1.2 3.2 3 0 1.2-.8 1.9-1.3 2.2.6.3 1.4 1 1.4 2.4.1 1.9-1.3 2.9-3.1 2.9zm-.4-8.6h-2v2.3h2c.9 0 1.3-.5 1.3-1.2.1-.7-.4-1.1-1.3-1.1zm.2 4.2h-2.1V14h2.1c.9 0 1.4-.6 1.4-1.3-.1-.6-.5-1.2-1.4-1.2zm5.5 4.4V5.4h2.1v8.7h4.8V16l-6.9-.1zm8.4 0V5.4h6.9v1.9h-4.9v2.4h4.1v1.8h-4.1V14h4.9v1.9h-6.9zM0 0v21.4h21.4V0H0zm19.1 19.1H2.2V2.2h16.9v16.9zM9.3 6.2H12v8.9H9.3V6.2zm7.6-.4c-1.8 0-1.8-2.7 0-2.7s1.8 2.7 0 2.7zm0-.9c.6 0 .6-.9 0-.9s-.6.9 0 .9z"/></svg>