<svg class="h-full w-auto" viewBox="0 0 22 18" fill="none" xmlns="http://www.w3.org/2000/svg"><path d="M21.027 2.172a8.613 8.613 0 0 1-2.478.68A4.32 4.32 0 0 0 20.446.464a8.642 8.642 0 0 1-2.74 1.047A4.307 4.307 0 0 0 14.557.149c-2.785 0-4.831 2.599-4.202 5.296A12.246 12.246 0 0 1 1.464.94a4.32 4.32 0 0 0 1.334 5.76 4.296 4.296 0 0 1-1.953-.54c-.047 1.998 1.386 3.868 3.46 4.284a4.325 4.325 0 0 1-1.948.073 4.317 4.317 0 0 0 4.03 2.996A8.674 8.674 0 0 1 0 15.299a12.213 12.213 0 0 0 6.613 1.938c8.01 0 12.535-6.764 12.261-12.832a8.784 8.784 0 0 0 2.153-2.233Z" fill="grey"/></svg>