<svg class="h-full w-auto" viewBox="0 0 31 22" fill="none" xmlns="http://www.w3.org/2000/svg"><g clip-path="url(#a)"><path d="M30.314 3.339a3.815 3.815 0 0 0-2.683-2.7C25.258 0 15.77 0 15.77 0S6.287 0 3.914.638A3.815 3.815 0 0 0 1.229 3.34C.594 5.723.594 10.693.594 10.693s0 4.97.635 7.354a3.815 3.815 0 0 0 2.684 2.701c2.373.638 11.859.638 11.859.638s9.486 0 11.859-.638a3.814 3.814 0 0 0 2.683-2.7c.635-2.384.635-7.355.635-7.355s0-4.97-.635-7.354Z" fill="grey"/><path d="m12.667 15.207 7.934-4.514-7.934-4.513v9.027Z" fill="#000"/></g><defs><clipPath id="a"><path fill="grey" transform="translate(.597)" d="M0 0h30.355v21.386H0z"/></clipPath></defs></svg>