<svg class="h-5 md:h-7" viewBox="0 0 814.01 379.99" xmlns="http://www.w3.org/2000/svg"><path fill="white" fill-rule="white" d="M359.79 7.38A7.39 7.39 0 0 0 352.41 0h-29.53a7.38 7.38 0 0 0-7.38 7.38v29.53a7.37 7.37 0 0 0 7.38 7.38h19.78a7.39 7.39 0 0 1 7.34 7.39v25.09a7.39 7.39 0 0 0 7.38 7.39h19.94a7.38 7.38 0 0 1 7.38 7.38v10.33a7.39 7.39 0 0 1-7.38 7.39h-20.64a7.38 7.38 0 0 0-7.38 7.38v29.53a7.39 7.39 0 0 0 7.38 7.38h20.68a7.38 7.38 0 0 1 7.38 7.38v23.62a7.38 7.38 0 0 0 7.38 7.39h89.32a7.39 7.39 0 0 0 7.39-7.39V155a7.39 7.39 0 0 0-7.39-7.39H401a7.37 7.37 0 0 1-7.38-7.38v-10.74a7.38 7.38 0 0 1 7.38-7.38h20.67a7.37 7.37 0 0 0 7.38-7.38V90.06a7.38 7.38 0 0 1 7.38-7.38h19.93a7.38 7.38 0 0 0 7.39-7.38V52.41a7.38 7.38 0 0 1 7.36-7.41h20.51a7.37 7.37 0 0 0 7.38-7.35V8.12a7.37 7.37 0 0 0-7.38-7.38h-29.53a7.37 7.37 0 0 0-7.38 7.38V31a7.39 7.39 0 0 1-7.38 7.38h-20.51a7.38 7.38 0 0 0-7.39 7.38v24.68a7.38 7.38 0 0 1-7.38 7.38h-10.34a7.39 7.39 0 0 1-7.38-7.38V47.25a7.38 7.38 0 0 0-7.33-7.39h-19.83a7.37 7.37 0 0 1-7.38-7.38Z"/><path fill="white" d="M0 289.82q0-3.1 3.36-3.1h12.29a12.62 12.62 0 0 1 11.26 6.14L43.55 322a5.36 5.36 0 0 0 9.37-.09l15.84-29.05A12.71 12.71 0 0 1 80 286.72h12.37q3.28 0 3.29 3.1a5.69 5.69 0 0 1-1 3L60.89 345a5.31 5.31 0 0 0-.87 2.92v25.58a5.71 5.71 0 0 1-1.81 4.27 5.91 5.91 0 0 1-4.27 1.68H41.78a6.15 6.15 0 0 1-4.33-1.68 5.71 5.71 0 0 1-1.81-4.27v-25.56a5.39 5.39 0 0 0-.86-2.92L1.1 292.86a5.51 5.51 0 0 1-1.1-3.04ZM103.71 342.8v-49.94a6.06 6.06 0 0 1 6.21-6.14H122a6.18 6.18 0 0 1 6.08 6.14v50.06q0 9.51 4.14 14.17t12.94 4.66h10.35q8.73 0 12.87-4.66t4.2-14.17v-50.06a6 6 0 0 1 1.75-4.33 5.88 5.88 0 0 1 4.33-1.81h12a6.07 6.07 0 0 1 4.47 1.81 5.92 5.92 0 0 1 1.81 4.33v49.94q0 17.71-10.42 27.49t-30.4 9.7h-11.6q-20.06 0-30.46-9.7t-10.35-27.49ZM249.36 380q-21.48 0-33-11.58T204.92 333q0-23.86 12-35.32t36-11.51h14.43a49 49 0 0 1 25.74 6.86q11.52 6.78 11.52 17 0 3.81-2.27 5.5a7.63 7.63 0 0 1-4.4 1.61h-7.69q-5.57 0-8.86-6.34t-16.3-6.34h-11.53q-14.16 0-19.21 6.08t-5 22.38q0 16.31 4.52 22.58t16.13 6.25h13.26q10.42 0 14.88-3.95a13.06 13.06 0 0 0 3.8-6.06c.88-2.87-1.67-5.39-4.67-5.39h-22.58a6 6 0 0 1-6.08-6.08v-5a5.82 5.82 0 0 1 1.75-4.27 5.9 5.9 0 0 1 4.33-1.81h45.89a6.2 6.2 0 0 1 6.09 6.08v7.18q0 18.1-10.87 27.88T263.91 380ZM309.62 373.52l16.24-61.58q6.6-25.15 42.95-25.22h34.86a5 5 0 0 1 3.94 1.81 6.1 6.1 0 0 1 1.62 4.2v80.79a5.71 5.71 0 0 1-1.81 4.27 6.15 6.15 0 0 1-4.33 1.68h-12.16a5.77 5.77 0 0 1-6.08-6.08v-10.93a5.37 5.37 0 0 0-5.37-5.37H343a5.36 5.36 0 0 0-5.19 4l-3.28 12.31a7.76 7.76 0 0 1-2.91 4.4 7.89 7.89 0 0 1-4.78 1.68h-12.76a4.3 4.3 0 0 1-3.62-1.42 4.68 4.68 0 0 1-1.1-2.59 12.51 12.51 0 0 1 .26-1.95ZM345.51 332a5.37 5.37 0 0 0 5.17 6.79h28.8a5.38 5.38 0 0 0 5.37-5.37v-23a5.37 5.37 0 0 0-5.37-5.37h-13.07a17.38 17.38 0 0 0-10.86 3.56 17.06 17.06 0 0 0-6.21 9.44ZM417.27 373.52V293a6.07 6.07 0 0 1 1.81-4.46 5.92 5.92 0 0 1 4.34-1.81h12.16a5.71 5.71 0 0 1 4.27 1.81 6 6 0 0 1 1.81 4.46v62.8a5.37 5.37 0 0 0 5.37 5.37h51a5.71 5.71 0 0 1 4.27 1.81 5.92 5.92 0 0 1 1.81 4.33v6.08a5.92 5.92 0 0 1-1.81 4.33 5.8 5.8 0 0 1-4.27 1.75h-74.61a6.17 6.17 0 0 1-4.34-1.68 5.74 5.74 0 0 1-1.81-4.27ZM511.24 373.52l16.23-61.58q6.6-25.15 42.95-25.22h34.87a5 5 0 0 1 3.94 1.81 6.1 6.1 0 0 1 1.62 4.2v80.79a5.74 5.74 0 0 1-1.81 4.27 6.16 6.16 0 0 1-4.34 1.68h-12.16a5.78 5.78 0 0 1-6.08-6.08v-10.93a5.36 5.36 0 0 0-5.37-5.37H544.6a5.38 5.38 0 0 0-5.19 4l-3.27 12.31a7.76 7.76 0 0 1-2.91 4.4 7.9 7.9 0 0 1-4.79 1.68H515.7a4.29 4.29 0 0 1-3.62-1.42 4.68 4.68 0 0 1-1.1-2.59 11.4 11.4 0 0 1 .26-1.95ZM547.12 332a5.38 5.38 0 0 0 5.18 6.79h28.79a5.37 5.37 0 0 0 5.37-5.37v-23a5.36 5.36 0 0 0-5.37-5.37H568a17.43 17.43 0 0 0-10.87 3.56A17.16 17.16 0 0 0 551 318ZM618.68 292.86a6.18 6.18 0 0 1 6.15-6.14h52.58q19.33 0 28.53 11.12 5.1 6.15 5.11 15.72a19 19 0 0 1-3.28 10.74 8.86 8.86 0 0 0 1 10.66q6 6.18 6 15.92 0 14-10 21.35t-24.32 7.24h-55.62a6 6 0 0 1-4.34-1.75 5.88 5.88 0 0 1-1.81-4.33Zm24.39 63.78a5.37 5.37 0 0 0 5.36 5.37h31.63c3.32 0 5.87-1 7.64-3s2.65-4.7 2.65-8.15-.89-6.17-2.65-8.15-4.32-3-7.64-3h-31.63a5.36 5.36 0 0 0-5.36 5.36Zm0-39.26a5.36 5.36 0 0 0 5.36 5.36h29.24a8.93 8.93 0 0 0 6.53-2.39 9.17 9.17 0 0 0 2.46-6.79 9.28 9.28 0 0 0-2.46-6.86 8.85 8.85 0 0 0-6.53-2.45h-29.24a5.36 5.36 0 0 0-5.36 5.36ZM718.73 355.73q0-3.81 2.27-5.43a7.41 7.41 0 0 1 4.39-1.68h7.7q5.82 0 8.86 6.34t13.65 6.34l22.64.45q11.38 0 11.38-7.44 0-5.62-13.9-8.86-6.21-1.45-13.72-2.91t-14.94-3.69a93.84 93.84 0 0 1-13.58-5.17 27 27 0 0 1-10.09-8.15 20.29 20.29 0 0 1-3.82-12.29q0-13 9.25-20t31.83-7.05l16.42.39a43 43 0 0 1 23.87 6.85q10.68 6.8 10.67 17 0 3.82-2.26 5.5a7.37 7.37 0 0 1-4.33 1.69h-7.7q-5.82 0-8.86-6.34t-13.65-6.41l-19.47-.39q-11.39 0-11.38 7.44 0 4.08 7.18 6.67a124.19 124.19 0 0 0 17.46 4.59q10.29 1.94 20.63 4.72a42.29 42.29 0 0 1 17.53 9.18A20.2 20.2 0 0 1 814 353q0 13-9.32 20.05t-31.76 7l-19.59-.39a43.66 43.66 0 0 1-23.94-6.79q-10.66-6.87-10.66-17.14Z"/></svg>